<?xml version="1.0" encoding="UTF-8"?>
<svg id="Layer_1" data-name="Layer 1" xmlns="http://www.w3.org/2000/svg" viewBox="0 0 487.19 330.24">
  <defs>
    <style>
      .cls-1 {
        fill: #231f20;
        stroke-width: 0px;
      }
    </style>
  </defs>
  <path class="cls-1" d="m215.53,79.55c-19.63,31.93-20.1,71.57-1.03,101.34,23.41,36.54,72.44,52.27,116.75,35.27-6.76,5.55-28.27,21.76-59.57,22.25-5.07.08-48.46.03-75.32-35.61-21.4-28.38-24.67-69.2-6.51-98.26,8-12.8,18.45-20.59,25.68-24.99Z"/>
  <path class="cls-1" d="m249.42,195.27c2.65,2.88,17.86,18.88,42.8,19.52,23.5.6,38.94-12.86,42.11-15.75,2.54-2.48,17.6-17.67,17.12-41.77-.49-24.14-16.19-38.72-18.83-41.09,11.44,21.91,9.38,48.05-5.14,66.08-17.7,21.99-50.99,28.24-78.06,13.01Z"/>
  <path class="cls-1" d="m236.41,143.23c13.46-11.15,32.09-13.43,47.25-5.82,16.87,8.46,26.37,27.62,22.94,46.91,1.42-2.11,9.69-14.9,5.82-31.5-3.59-15.4-15.08-23.12-17.46-24.65-1.89-1.32-15.65-10.57-33.21-5.82-17.01,4.6-24.27,18.73-25.34,20.89Z"/>
  <path class="cls-1" d="m263.8,113.78c20.53-6.44,42.68,2.39,52.73,20.54,9.26,16.73,6.42,38.09-7.19,52.38,3.43-2.08,15.36-9.86,20.89-25.68,6.08-17.42.09-32.24-1.37-35.61-1.48-2.39-10.6-16.53-29.1-20.2-19.46-3.86-33.85,6.93-35.95,8.56Z"/>
  <path class="cls-1" d="m284.31,64.33c-3.12-4.89-5.86-5.12-9.78-9.21-5.09-5.3-3.04-7.58-8.02-15.85-6.23-10.35-15.16-16.31-17.74-17.99-1.28-.84-2.75-1.47-4.86-2.99-1.83-1.31-5.9-4.47-9.67-9.77-1.15-1.63-2.6-3.9-3.95-6.81-.15,1.71-.1,4.08.86,6.6.9,2.36,2.15,3.64,1.79,4.02-.5.52-3.6-1.29-5.98-3.48-1.78-1.64-4.12-4.39-5.74-8.84-.44,1.94-1.04,5.9.46,10.39,1.53,4.58,4.45,7.32,6.1,8.84,5.58,5.1,11.88,6.41,11.66,7.11-.22.69-5.98-2.07-11.57.36-2.02.88-2.28,1.68-5.65,3.74-2.95,1.8-5.58,2.91-7.39,3.58-5.99,2.16-13.83,5.57-22.34,10.92-9.12,5.74-19.25,13.89-28.34,25.37-17.31,21.87-21.86,44.32-23.28,54.44-.96,9.5-2.11,33.69,11.64,59.23,17.45,32.41,46.82,44.59,54.78,47.59-3.43-3.07-42.16-38.94-35.27-92.79,0,0,6.33-49.44,57.47-81.11,1.32-.82,2.73-1.18,2.73-1.18,3.93-1.31,8.71,1.35,8.71,1.35,7.38,3.24,12.96,8.93,19.62,10.95.31.09,1.97.59,4.1,1.18,4.56,1.28,5.02,1.27,6.47,1.73,2.63.83,8.71,2.75,9.62,6.57.67,2.81-1.83,5.07-1.24,5.54.79.63,6.35-2.59,7.74-7.93,1.28-4.9-1.55-9.33-2.97-11.56Zm-24.25-15.64c-.72-.9-2.31-.15-4.26-.42-.73-.1-1.85-.27-2.72-1.1-.99-.94-.73-1.93-1.6-3.71-.59-1.2-1.33-2.02-1.82-2.5.49-.1,4.29-.83,7.46,1.89,2.65,2.27,3.01,5.37,3.07,6.02-.02-.04-.06-.11-.13-.19Z"/>
  <g>
    <path class="cls-1" d="m3.14,328.86H0v-47.27h3.14v47.27Z"/>
    <path class="cls-1" d="m28.48,286.79v42.07h-3.14v-48.65l53.31,43.45v-42.07h3.14v48.65l-53.31-43.45Z"/>
    <path class="cls-1" d="m147.9,281.59c8.36,0,12.54,4.2,12.54,12.6s-4.18,12.6-12.54,12.6h-40.77v22.06h-3.14v-47.27h43.91Zm9.41,12.6c0-6.3-3.14-9.45-9.41-9.45h-40.77v18.91h40.77c6.27,0,9.41-3.15,9.41-9.45Z"/>
    <path class="cls-1" d="m185.78,306.8v22.06h-3.14v-47.27h3.14v22.06h50.18v-22.06h3.14v47.27h-3.14v-22.06h-50.18Z"/>
    <path class="cls-1" d="m343.09,286.79v42.07h-3.14v-48.65l53.31,43.45v-42.07h3.14v48.65l-53.31-43.45Z"/>
    <path class="cls-1" d="m421.74,328.86h-3.14v-47.27h3.14v47.27Z"/>
    <path class="cls-1" d="m456.24,307.27l-26.03,21.59h-4.92l28.51-23.63-28.51-23.63h4.92l26.03,21.59,26.03-21.59h4.92l-28.48,23.63,28.48,23.63h-4.92l-26.03-21.59Z"/>
    <rect class="cls-1" x="264.54" y="281.59" width="53.21" height="3.15"/>
    <rect class="cls-1" x="264.44" y="303.65" width="53.31" height="3.16"/>
    <rect class="cls-1" x="264.44" y="325.71" width="53.31" height="3.15"/>
  </g>
</svg>